<svg xmlns="http://www.w3.org/2000/svg" fill="none" width="20" height="20" viewBox="0 0 20 20">
  <mask id="a" width="20" height="20" x="0" y="0" maskUnits="userSpaceOnUse" style="mask-type:alpha">
    <path fill="#D9D9D9" d="M0 0h20v20H0z"/>
  </mask>
  <g mask="url(#a)">
    <path fill="#56616B" d="M5.83 11.46h5a.6.6 0 0 0 .45-.18.6.6 0 0 0 .18-.45.6.6 0 0 0-.18-.44.6.6 0 0 0-.45-.18h-5a.6.6 0 0 0-.44.18.6.6 0 0 0-.18.44c0 .18.06.33.18.45a.6.6 0 0 0 .44.18Zm0-2.5h8.34a.6.6 0 0 0 .44-.18.6.6 0 0 0 .18-.45.6.6 0 0 0-.18-.44.6.6 0 0 0-.44-.18H5.83a.6.6 0 0 0-.44.18.6.6 0 0 0-.18.44c0 .18.06.33.18.45a.6.6 0 0 0 .44.18Zm0-2.5h8.34a.6.6 0 0 0 .44-.18.6.6 0 0 0 .18-.45.6.6 0 0 0-.18-.44.6.6 0 0 0-.44-.18H5.83a.6.6 0 0 0-.44.18.6.6 0 0 0-.18.44c0 .18.06.33.18.45a.6.6 0 0 0 .44.18Zm-.8 8.12-1.67 1.67a.69.69 0 0 1-.81.16.7.7 0 0 1-.47-.7V3.6c0-.42.15-.78.44-1.07.3-.3.65-.44 1.07-.44h12.82c.42 0 .78.15 1.07.44.3.3.44.65.44 1.07v9.49c0 .42-.15.77-.44 1.07-.3.29-.65.43-1.07.43H5.03Zm-.53-1.25h11.91c.06 0 .12-.02.18-.08a.24.24 0 0 0 .08-.17V3.59a.24.24 0 0 0-.08-.18.25.25 0 0 0-.18-.08H3.59a.25.25 0 0 0-.18.08.25.25 0 0 0-.08.18v10.9l1.17-1.16Z"/>
  </g>
</svg>