<svg xmlns="http://www.w3.org/2000/svg" fill="none" width="48" height="48" viewBox="0 0 48 48">
  <rect width="48" height="48" fill="url(#a)" rx="16"/>
  <mask id="b" width="24" height="24" x="12" y="12" maskUnits="userSpaceOnUse" style="mask-type:alpha">
    <path fill="#D9D9D9" d="M12 12h24v24H12z"/>
  </mask>
  <g mask="url(#b)">
    <path fill="url(#c)" d="M18 33c-.57 0-1.04-.2-1.43-.58A1.94 1.94 0 0 1 16 31v-2h3V15.37l1.27.9 1.3-.9 1.3.9 1.33-.9 1.3.9 1.3-.9 1.32.9 1.3-.9 1.3.9 1.28-.9V31c0 .57-.2 1.04-.57 1.42-.39.39-.86.58-1.43.58H18Zm12-1c.28 0 .52-.1.71-.29.2-.19.29-.43.29-.71V17H20v12h9v2c0 .28.1.52.29.71.19.2.43.29.71.29Zm-8.63-11.5v-1h5.36v1h-5.36Zm0 3v-1h5.36v1h-5.36Zm7.5-2.73a.7.7 0 0 1-.52-.23.76.76 0 0 1-.23-.54c0-.2.08-.38.23-.54a.73.73 0 0 1 1.07 0c.15.16.23.34.23.54s-.07.38-.22.54a.73.73 0 0 1-.55.23Zm0 3a.7.7 0 0 1-.52-.23.76.76 0 0 1-.23-.54c0-.2.08-.38.23-.54a.73.73 0 0 1 1.07 0c.15.16.23.34.23.54s-.07.38-.22.54a.73.73 0 0 1-.55.23Z"/>
  </g>
  <defs>
    <linearGradient id="a" x1="1.5" x2="48" y1=".31" y2="46.81" gradientUnits="userSpaceOnUse">
      <stop stop-color="#DBDEE6"/>
      <stop offset="1" stop-color="#F6F7F9"/>
    </linearGradient>
    <linearGradient id="c" x1="16.8" x2="32.27" y1="15.38" y2="31.52" gradientUnits="userSpaceOnUse">
      <stop stop-color="#5C6670"/>
      <stop offset="1" stop-color="#131316"/>
    </linearGradient>
  </defs>
</svg>