<svg xmlns="http://www.w3.org/2000/svg" fill="none" width="20" height="20" viewBox="0 0 20 20">
  <mask id="a" width="20" height="20" x="0" y="0" maskUnits="userSpaceOnUse" style="mask-type:alpha">
    <path fill="#C4C4C4" d="M0 0h20v20H0z"/>
  </mask>
  <g mask="url(#a)">
    <path fill="#56616B" d="M1.74 14.12c0-.42.11-.8.32-1.11.22-.33.5-.58.87-.76a12.8 12.8 0 0 1 2.34-.88c.79-.2 1.65-.3 2.58-.3.93 0 1.79.1 2.57.3.78.2 1.56.5 2.34.88.37.18.66.44.87.76.21.32.32.69.32 1.1v.58c0 .31-.12.59-.35.82-.23.24-.5.36-.83.36H2.93c-.33 0-.61-.11-.84-.34-.23-.23-.35-.51-.35-.84v-.57Zm15.34 1.75h-1.84a2.7 2.7 0 0 0 .29-1.18v-.6a3.42 3.42 0 0 0-1.46-2.8 9.06 9.06 0 0 1 2.9.97c.4.21.72.47.95.78.23.3.34.64.34 1v.65c0 .33-.12.6-.35.84-.23.23-.5.34-.83.34ZM7.85 9.76c-.78 0-1.45-.27-2-.82a2.71 2.71 0 0 1-.82-2c0-.78.28-1.44.83-1.99a2.71 2.71 0 0 1 1.99-.82c.78 0 1.44.27 2 .82.54.55.81 1.21.81 2 0 .78-.27 1.44-.82 1.99-.55.55-1.21.82-2 .82Zm6.9-2.82c0 .77-.28 1.43-.83 1.98a2.7 2.7 0 0 1-2.63.74 4.18 4.18 0 0 0 0-5.45c.1-.03.21-.06.32-.07l.32-.01c.78 0 1.44.27 1.99.82.55.55.82 1.21.82 1.99ZM2.9 14.7h9.87v-.59a.86.86 0 0 0-.13-.47 1.1 1.1 0 0 0-.42-.36 9.37 9.37 0 0 0-4.38-1.06 9.43 9.43 0 0 0-4.39 1.06c-.2.1-.34.22-.42.36a.87.87 0 0 0-.13.47v.59Zm4.94-6.12c.45 0 .84-.16 1.16-.48.33-.32.49-.7.49-1.16 0-.46-.16-.85-.48-1.17a1.59 1.59 0 0 0-1.17-.49c-.45 0-.84.17-1.17.49-.32.32-.48.7-.48 1.16 0 .46.16.85.48 1.17.32.32.71.48 1.17.48Z"/>
  </g>
</svg>