<svg xmlns="http://www.w3.org/2000/svg" fill="none" height="36" width="36" viewBox="0 0 36 36">
  <path fill="#131316" d="M29.08 12.55H24.3a.86.86 0 0 1-.86-.86V6.96a.86.86 0 0 1 .86-.86h1.88a3.77 3.77 0 0 1 3.77 3.77v1.82a.86.86 0 0 1-.87.86ZM6.06 26.15V15.6a.86.86 0 0 1 .87-.86h4.75a.86.86 0 0 1 .87.86v13.46a.86.86 0 0 1-.87.86H9.83a3.77 3.77 0 0 1-3.77-3.77ZM14.75 26.15V15.6a.86.86 0 0 1 .86-.86h4.76a.86.86 0 0 1 .86.86v13.46a.86.86 0 0 1-.86.86h-1.85a3.77 3.77 0 0 1-3.77-3.77ZM23.43 26.15V15.6a.86.86 0 0 1 .87-.86h4.75a.86.86 0 0 1 .87.86v13.46a.86.86 0 0 1-.87.86H27.2a3.77 3.77 0 0 1-3.77-3.77ZM17.54 6.09 6.92 6.08a.86.86 0 0 0-.87.86v1.9a3.7 3.7 0 0 0 3.7 3.7h10.62a.87.87 0 0 0 .86-.86v-1.9a3.7 3.7 0 0 0-3.69-3.7Z"/>
</svg>