<svg xmlns="http://www.w3.org/2000/svg" fill="none" width="24" height="24" viewBox="0 0 24 24">
  <mask id="a" width="24" height="24" x="0" y="0" maskUnits="userSpaceOnUse" style="mask-type:alpha">
    <path fill="#D9D9D9" d="M0 0h24v24H0z"/>
  </mask>
  <g mask="url(#a)">
    <path fill="#56616B" d="M4 17.27a.47.47 0 0 1-.36-.14.5.5 0 0 1-.14-.36c0-.14.05-.27.14-.36.09-.09.21-.14.36-.14h16a.5.5 0 0 1 .36.14c.1.1.14.21.14.36a.5.5 0 0 1-.14.36c-.09.1-.21.14-.36.14H4Zm0-4.77a.47.47 0 0 1-.36-.15.5.5 0 0 1-.14-.35.5.5 0 0 1 .14-.36c.09-.1.21-.14.36-.14h16c.15 0 .27.05.36.15.1.1.14.22.14.35a.5.5 0 0 1-.14.36.5.5 0 0 1-.36.14H4Zm0-4.78a.49.49 0 0 1-.36-.13.49.49 0 0 1-.14-.37.5.5 0 0 1 .14-.35c.09-.1.21-.15.36-.15h16c.15 0 .27.05.36.15.1.1.14.22.14.35 0 .15-.05.28-.14.37a.5.5 0 0 1-.36.13H4Z"/>
  </g>
</svg>