<svg xmlns="http://www.w3.org/2000/svg" fill="none" width="20" height="20" viewBox="0 0 20 20">
  <mask id="a" width="20" height="20" x="0" y="0" maskUnits="userSpaceOnUse" style="mask-type:alpha">
    <path fill="#C4C4C4" d="M0 0h20v20H0z"/>
  </mask>
  <g mask="url(#a)">
    <path fill="#56616B" d="M4.38 15.74a.6.6 0 0 1-.45-.18.6.6 0 0 1-.18-.45.6.6 0 0 1 .18-.44.6.6 0 0 1 .44-.18h.89V8.27c0-1.12.34-2.11 1.03-2.97a4.6 4.6 0 0 1 2.67-1.66v-.52a1 1 0 0 1 .3-.73 1 1 0 0 1 .74-.3 1 1 0 0 1 .74.3c.2.2.3.45.3.73v.52a4.6 4.6 0 0 1 2.67 1.66c.69.86 1.03 1.85 1.03 2.97v6.22h.88a.6.6 0 0 1 .45.18.6.6 0 0 1 .18.44.6.6 0 0 1-.18.45.6.6 0 0 1-.45.18H4.38ZM10 18.08c-.42 0-.77-.15-1.06-.45-.3-.3-.45-.65-.45-1.06h3.02c0 .42-.15.77-.45 1.07-.3.29-.65.44-1.06.44Zm-3.5-3.6h7V8.28c0-.97-.35-1.79-1.03-2.47A3.37 3.37 0 0 0 10 4.78c-.96 0-1.79.34-2.47 1.02a3.37 3.37 0 0 0-1.02 2.47v6.22Z"/>
  </g>
</svg>