<svg xmlns="http://www.w3.org/2000/svg" fill="none" width="20" height="20" viewBox="0 0 20 20">
  <mask id="a" width="20" height="20" x="0" y="0" maskUnits="userSpaceOnUse" style="mask-type:alpha">
    <path fill="#D9D9D9" d="M0 0h20v20H0z"/>
  </mask>
  <g mask="url(#a)">
    <path fill="#56616B" d="M13.25 9.49 10.2 6.43a.69.69 0 0 1-.21-.53.69.69 0 0 1 .21-.53l3.06-3.06a.69.69 0 0 1 .53-.21.7.7 0 0 1 .53.21l3.06 3.06a.69.69 0 0 1 .21.53.69.69 0 0 1-.21.53L14.3 9.49a.69.69 0 0 1-.53.21.7.7 0 0 1-.53-.21ZM3.22 7.87V3.54c0-.21.07-.4.22-.54a.73.73 0 0 1 .54-.21H8.3a.73.73 0 0 1 .75.75v4.33a.73.73 0 0 1-.75.75H3.98a.73.73 0 0 1-.54-.22.73.73 0 0 1-.22-.53Zm7.82 7.82v-4.33c0-.21.08-.4.22-.54a.73.73 0 0 1 .54-.21h4.32a.73.73 0 0 1 .75.75v4.33a.73.73 0 0 1-.75.75H11.8a.73.73 0 0 1-.54-.22.73.73 0 0 1-.22-.53Zm-7.82 0v-4.33c0-.21.07-.4.22-.54a.73.73 0 0 1 .54-.21H8.3a.73.73 0 0 1 .75.75v4.33a.73.73 0 0 1-.75.75H3.98a.73.73 0 0 1-.54-.22.73.73 0 0 1-.22-.53Zm1.25-8.32h3.34V4.04H4.47v3.33Zm9.33.9 2.36-2.35-2.36-2.35-2.35 2.35 2.35 2.35Zm-1.5 6.92h3.33v-3.33h-3.34v3.33Zm-7.83 0h3.34v-3.33H4.47v3.33Z"/>
  </g>
</svg>